<svg width="88" height="88" viewBox="0 0 88 88" fill="none" xmlns="http://www.w3.org/2000/svg">
<rect width="88" height="88" rx="44" fill="#FFF5FB"/>
<path d="M42.5001 36.1602V41.8802L40.4801 41.1802C39.4601 40.8202 38.8401 40.4802 38.8401 38.7402C38.8401 37.3202 39.9001 36.1602 41.2001 36.1602H42.5001Z" fill="#FFCDEA"/>
<path d="M49.16 49.2601C49.16 50.6801 48.1 51.8401 46.8 51.8401H45.5V46.1201L47.52 46.8201C48.54 47.1801 49.16 47.5201 49.16 49.2601Z" fill="#FFCDEA"/>
<path d="M52.38 24H35.62C28.34 24 24 28.34 24 35.62V52.38C24 59.66 28.34 64 35.62 64H52.38C59.66 64 64 59.66 64 52.38V35.62C64 28.34 59.66 24 52.38 24ZM48.52 44C50.08 44.54 52.16 45.68 52.16 49.26C52.16 52.34 49.76 54.84 46.8 54.84H45.5V56C45.5 56.82 44.82 57.5 44 57.5C43.18 57.5 42.5 56.82 42.5 56V54.84H41.78C38.5 54.84 35.84 52.06 35.84 48.66C35.84 47.84 36.5 47.16 37.34 47.16C38.16 47.16 38.84 47.84 38.84 48.66C38.84 50.42 40.16 51.84 41.78 51.84H42.5V45.06L39.48 44C37.92 43.46 35.84 42.32 35.84 38.74C35.84 35.66 38.24 33.16 41.2 33.16H42.5V32C42.5 31.18 43.18 30.5 44 30.5C44.82 30.5 45.5 31.18 45.5 32V33.16H46.22C49.5 33.16 52.16 35.94 52.16 39.34C52.16 40.16 51.5 40.84 50.66 40.84C49.84 40.84 49.16 40.16 49.16 39.34C49.16 37.58 47.84 36.16 46.22 36.16H45.5V42.94L48.52 44Z" fill="#FFCDEA"/>
</svg>
