<svg width="88" height="88" viewBox="0 0 88 88" fill="none" xmlns="http://www.w3.org/2000/svg">
<rect width="88" height="88" rx="44" fill="#FEF8EA"/>
<g clip-path="url(#clip0_98_162)">
<path d="M54.0399 62.5799L47.0799 59.0999C45.1399 58.1399 42.8799 58.1399 40.9399 59.0999L33.9799 62.5799C27.9999 65.5599 21.6999 59.1399 24.8199 53.2399L26.4599 50.1599C26.6799 49.7399 27.0399 49.3999 27.4799 49.1999L52.7599 37.7999C53.7999 37.3399 55.0199 37.7599 55.5399 38.7599L63.1599 53.2399C66.2799 59.1399 59.9999 65.5599 54.0399 62.5799Z" fill="#FCDC94"/>
<path d="M51.2009 35.38L34.6409 42.84C32.7809 43.68 30.9009 41.68 31.8609 39.88L37.9409 28.34C40.5209 23.44 47.5209 23.44 50.1009 28.34L52.2409 32.42C52.8009 33.52 52.3209 34.88 51.2009 35.38Z" fill="#FCDC94"/>
</g>
<defs>
<clipPath id="clip0_98_162">
<rect width="48" height="48" fill="white" transform="translate(20 20)"/>
</clipPath>
</defs>
</svg>
