<svg width="28" height="29" viewBox="0 0 28 29" fill="none" xmlns="http://www.w3.org/2000/svg">
<path d="M12.8334 24.7083C6.55671 24.7083 1.45837 19.6099 1.45837 13.3333C1.45837 7.05658 6.55671 1.95825 12.8334 1.95825C19.11 1.95825 24.2084 7.05658 24.2084 13.3333C24.2084 19.6099 19.11 24.7083 12.8334 24.7083ZM12.8334 3.70825C7.52504 3.70825 3.20837 8.02492 3.20837 13.3333C3.20837 18.6416 7.52504 22.9583 12.8334 22.9583C18.1417 22.9583 22.4584 18.6416 22.4584 13.3333C22.4584 8.02492 18.1417 3.70825 12.8334 3.70825Z" fill="#A3A0A1"/>
<path d="M23.52 27.0883C23.4266 27.0883 23.3333 27.0767 23.2516 27.065C22.7033 26.995 21.7116 26.6217 21.1516 24.9533C20.86 24.0783 20.965 23.2033 21.4433 22.5383C21.9216 21.8733 22.7266 21.5 23.6483 21.5C24.8383 21.5 25.7716 21.955 26.1916 22.76C26.6116 23.565 26.495 24.5917 25.83 25.5833C25.0016 26.8317 24.1033 27.0883 23.52 27.0883ZM22.82 24.405C23.0183 25.0117 23.2983 25.315 23.485 25.3383C23.6716 25.3617 24.0216 25.14 24.3833 24.615C24.7216 24.1133 24.745 23.7517 24.6633 23.5883C24.5816 23.425 24.255 23.25 23.6483 23.25C23.2866 23.25 23.0183 23.3667 22.8666 23.565C22.7266 23.7633 22.7033 24.0667 22.82 24.405Z" fill="#A3A0A1"/>
</svg>
