<svg width="88" height="88" viewBox="0 0 88 88" fill="none" xmlns="http://www.w3.org/2000/svg">
<rect width="88" height="88" rx="44" fill="#F3F8F6"/>
<path d="M58 50C53.58 50 50 53.58 50 58C50 59.5 50.42 60.92 51.16 62.12C52.54 64.44 55.08 66 58 66C60.92 66 63.46 64.44 64.84 62.12C65.58 60.92 66 59.5 66 58C66 53.58 62.42 50 58 50ZM62.14 57.14L57.88 61.08C57.6 61.34 57.22 61.48 56.86 61.48C56.48 61.48 56.1 61.34 55.8 61.04L53.82 59.06C53.24 58.48 53.24 57.52 53.82 56.94C54.4 56.36 55.36 56.36 55.94 56.94L56.9 57.9L60.1 54.94C60.7 54.38 61.66 54.42 62.22 55.02C62.78 55.62 62.74 56.56 62.14 57.14Z" fill="#C4DAD2"/>
<path d="M64 35.0998V35.9998C64 37.0998 63.1 37.9998 62 37.9998H26C24.9 37.9998 24 37.0998 24 35.9998V35.0798C24 30.4998 27.7 26.7998 32.28 26.7998H55.7C60.28 26.7998 64 30.5198 64 35.0998Z" fill="#C4DAD2"/>
<path d="M24 43V52.92C24 57.5 27.7 61.2 32.28 61.2H44.8C45.96 61.2 46.96 60.22 46.86 59.06C46.58 56 47.56 52.68 50.28 50.04C51.4 48.94 52.78 48.1 54.28 47.62C56.78 46.82 59.2 46.92 61.34 47.64C62.64 48.08 64 47.14 64 45.76V42.98C64 41.88 63.1 40.98 62 40.98H26C24.9 41 24 41.9 24 43ZM36 54.5H32C31.18 54.5 30.5 53.82 30.5 53C30.5 52.18 31.18 51.5 32 51.5H36C36.82 51.5 37.5 52.18 37.5 53C37.5 53.82 36.82 54.5 36 54.5Z" fill="#C4DAD2"/>
</svg>
