<svg width="88" height="88" viewBox="0 0 88 88" fill="none" xmlns="http://www.w3.org/2000/svg">
<rect width="88" height="88" rx="44" fill="#ECF8FF"/>
<path d="M36.7793 56.9804V36.6604C36.7793 35.8604 37.0193 35.0804 37.4593 34.4204L42.9193 26.3004C43.7793 25.0004 45.9193 24.0804 47.7393 24.7604C49.6993 25.4204 50.9993 27.6204 50.5793 29.5804L49.5393 36.1204C49.4593 36.7204 49.6193 37.2604 49.9593 37.6804C50.2993 38.0604 50.7993 38.3004 51.3393 38.3004H59.5593C61.1393 38.3004 62.4993 38.9404 63.2993 40.0604C64.0593 41.1404 64.1993 42.5404 63.6993 43.9604L58.7793 58.9404C58.1593 61.4204 55.4593 63.4404 52.7793 63.4404H44.9793C43.6393 63.4404 41.7593 62.9804 40.8993 62.1204L38.3393 60.1404C37.3593 59.4004 36.7793 58.2204 36.7793 56.9804Z" fill="#A0DEFF"/>
<path d="M30.42 32.7598H28.36C25.26 32.7598 24 33.9598 24 36.9198V57.0398C24 59.9998 25.26 61.1998 28.36 61.1998H30.42C33.52 61.1998 34.78 59.9998 34.78 57.0398V36.9198C34.78 33.9598 33.52 32.7598 30.42 32.7598Z" fill="#A0DEFF"/>
</svg>
