<svg width="29" height="29" viewBox="0 0 29 29" fill="none" xmlns="http://www.w3.org/2000/svg">
<g clip-path="url(#clip0_135_54)">
<path d="M14.3099 13.0561L14.3974 13.0592L14.4517 13.0483C14.4606 13.0481 14.4726 13.0478 14.4879 13.0478C14.5354 13.0478 14.5949 13.05 14.6521 13.0544L14.698 13.0579L14.744 13.0558C17.4334 12.9323 19.5409 10.7226 19.5546 8.01704H19.5546V8.01325C19.5546 5.23071 17.2821 2.95825 14.4996 2.95825C11.717 2.95825 9.44458 5.23071 9.44458 8.01325C9.44458 10.7509 11.5849 12.9603 14.3099 13.0561ZM14.6862 13.3066H14.686H14.6858H14.6856H14.6854H14.6852H14.685H14.6848H14.6846H14.6844H14.6842H14.684H14.6838H14.6836H14.6834H14.6832H14.683H14.6828H14.6826H14.6824H14.6822H14.682H14.6818H14.6816H14.6814H14.6812H14.681H14.6808H14.6806H14.6804H14.6802H14.68H14.6798H14.6796H14.6794H14.6792H14.679H14.6788H14.6786H14.6784H14.6782H14.6781H14.6779H14.6777H14.6775H14.6773H14.6771H14.6769H14.6767H14.6765H14.6763H14.6761H14.6759H14.6757H14.6755H14.6753H14.6752H14.675H14.6748H14.6746H14.6744H14.6742H14.674H14.6738H14.6736H14.6734H14.6732H14.6731H14.6729H14.6727H14.6725H14.6723H14.6721H14.6719H14.6717H14.6715H14.6714H14.6712H14.671H14.6708H14.6706H14.6704H14.6702H14.67H14.6699H14.6697H14.6695H14.6693H14.6691H14.6689H14.6687H14.6686H14.6684H14.6682H14.668H14.6678H14.6676H14.6675H14.6673H14.6671H14.6669H14.6667H14.6665H14.6664H14.6662H14.666H14.6658H14.6656H14.6654H14.6653H14.6651H14.6649H14.6647H14.6645H14.6643H14.6642H14.664H14.6638H14.6636H14.6634H14.6633H14.6631H14.6629H14.6627H14.6625H14.6624H14.6622H14.662H14.6618H14.6616H14.6615H14.6613H14.6611H14.6609H14.6607H14.6606H14.6604H14.6602H14.66H14.6599H14.6597H14.6595H14.6593H14.6591H14.659H14.6588H14.6586H14.6584H14.6583H14.6581H14.6579H14.6577H14.6575H14.6574H14.6572H14.657H14.6568H14.6567H14.6565H14.6563H14.6561H14.656H14.6558H14.6556H14.6554H14.6553H14.6551H14.6549H14.6547H14.6546H14.6544H14.6542H14.654H14.6539H14.6537H14.6535H14.6533H14.6532H14.653H14.6528H14.6526H14.6525H14.6523H14.6521H14.6519H14.6518H14.6516H14.6514H14.6513H14.6511H14.6509H14.6507H14.6506H14.6504H14.6502H14.65H14.6499H14.6497H14.6495H14.6494H14.6492H14.649H14.6488H14.6487H14.6485H14.6483H14.6481H14.648H14.6478H14.6476H14.6475H14.6473H14.6472C14.546 13.2948 14.4434 13.2956 14.3495 13.3049C11.395 13.1847 9.19458 10.8636 9.19458 8.01325C9.19458 5.0908 11.5771 2.70825 14.4996 2.70825C17.4216 2.70825 19.8039 5.09008 19.8046 8.01192C19.7937 10.8866 17.5495 13.2088 14.7088 13.3066H14.7087H14.7087H14.7086H14.7085H14.7085H14.7084H14.7083H14.7083H14.7082H14.7081H14.7081H14.708H14.7079H14.7078H14.7078H14.7077H14.7076H14.7076H14.7075H14.7074H14.7074H14.7073H14.7072H14.7072H14.7071H14.707H14.707H14.7069H14.7068H14.7068H14.7067H14.7066H14.7065H14.7065H14.7064H14.7063H14.7063H14.7062H14.7061H14.7061H14.706H14.7059H14.7059H14.7058H14.7057H14.7057H14.7056H14.7055H14.7055H14.7054H14.7053H14.7053H14.7052H14.7051H14.705H14.705H14.7049H14.7048H14.7048H14.7047H14.7046H14.7046H14.7045H14.7044H14.7044H14.7043H14.7042H14.7042H14.7041H14.704H14.704H14.7039H14.7038H14.7037H14.7037H14.7036H14.7035H14.7035H14.7034H14.7033H14.7033H14.7032H14.7031H14.7031H14.703H14.7029H14.7029H14.7028H14.7027H14.7027H14.7026H14.7025H14.7024H14.7024H14.7023H14.7022H14.7022H14.7021H14.702H14.702H14.7019H14.7018H14.7018H14.7017H14.7016H14.7016H14.7015H14.7014H14.7014H14.7013H14.7012H14.7011H14.7011H14.701H14.7009H14.7009H14.7008H14.7007H14.7007H14.7006H14.7005H14.7005H14.7004H14.7003H14.7003H14.7002H14.7001H14.7001H14.7H14.6999H14.6999H14.6998H14.6997H14.6996H14.6996H14.6995H14.6994H14.6994H14.6993H14.6992H14.6992H14.6991H14.699H14.699H14.6989H14.6988H14.6988H14.6987H14.6986H14.6986H14.6985H14.6984H14.6983H14.6983H14.6982H14.6981H14.6981H14.698H14.6979H14.6979H14.6978H14.6977H14.6977H14.6976H14.6975H14.6975H14.6974H14.6973H14.6973H14.6972H14.6971H14.697H14.697H14.6969H14.6968H14.6968H14.6967H14.6966H14.6966H14.6965H14.6964H14.6964H14.6963H14.6962H14.6962H14.6961H14.696H14.696H14.6959H14.6958H14.6957H14.6957H14.6956H14.6955H14.6955H14.6954H14.6953H14.6953H14.6952H14.6951H14.6951H14.695H14.6949H14.6949H14.6948H14.6947H14.6947H14.6946H14.6945H14.6945H14.6944H14.6943H14.6942H14.6942H14.6941H14.694H14.694H14.6939H14.6938H14.6938H14.6937H14.6936H14.6936H14.6935H14.6934H14.6934H14.6933H14.6932H14.6932H14.6931H14.693H14.6929H14.6929H14.6928H14.6927H14.6927H14.6926H14.6925H14.6925H14.6924H14.6923H14.6923H14.6922H14.6921H14.6921H14.692H14.6919H14.6919H14.6918H14.6917H14.6916H14.6916H14.6915H14.6914H14.6914H14.6913H14.6912H14.6912H14.6911H14.691H14.691H14.6909H14.6908H14.6908H14.6907H14.6906H14.6906H14.6905H14.6904H14.6903H14.6903H14.6902H14.6901H14.6901H14.69H14.6899H14.6899H14.6898H14.6897H14.6897H14.6896H14.6895H14.6895H14.6894H14.6893H14.6893H14.6892H14.6891H14.689H14.689H14.6889H14.6888H14.6888H14.6887H14.6886H14.6886H14.6885H14.6884H14.6884H14.6883H14.6882H14.6882H14.6881H14.688H14.688H14.6879H14.6878H14.6878H14.6877H14.6876H14.6875H14.6875H14.6874H14.6873H14.6873H14.6872H14.6871H14.6871H14.687H14.6869H14.6869H14.6868H14.6867H14.6867H14.6866H14.6865H14.6865H14.6864H14.6863H14.6862Z" fill="white" stroke="white" stroke-width="1.5"/>
<path d="M14.6979 26.8084C12.4112 26.8084 10.1129 26.2251 8.37454 25.0584C6.75288 23.9851 5.86621 22.5151 5.86621 20.9167C5.86621 19.3184 6.75288 17.8367 8.37454 16.7517C11.8745 14.4301 17.5445 14.4301 21.0212 16.7517C22.6312 17.8251 23.5295 19.2951 23.5295 20.8934C23.5295 22.4917 22.6429 23.9734 21.0212 25.0584C19.2712 26.2251 16.9845 26.8084 14.6979 26.8084ZM9.34288 18.2217C8.22288 18.9684 7.61621 19.9251 7.61621 20.9284C7.61621 21.9201 8.23454 22.8767 9.34288 23.6117C12.2479 25.5601 17.1479 25.5601 20.0529 23.6117C21.1729 22.8651 21.7795 21.9084 21.7795 20.9051C21.7795 19.9134 21.1612 18.9567 20.0529 18.2217C17.1479 16.2851 12.2479 16.2851 9.34288 18.2217Z" fill="white"/>
</g>
<defs>
<clipPath id="clip0_135_54">
<rect width="28" height="28" fill="white" transform="translate(0.5 0.5)"/>
</clipPath>
</defs>
</svg>
